<svg id="Layer_3" enable-background="new 0 0 64 64" height="512" viewBox="0 0 64 64" width="512" xmlns="http://www.w3.org/2000/svg"><g><path d="m48 8 14 24v4l-17-25" fill="#b5b5b5"/><path d="m52 8-14 24v4l17-25" fill="#ccc"/><path d="m16 32-3-4-6.221 2.828c-2.91 1.323-4.779 4.225-4.779 7.422 0 2.071 1.679 3.75 3.75 3.75.811 0 1.601-.263 2.25-.75l3-2.25" fill="#976947"/><path d="m30 32 3-4 6.221 2.828c2.91 1.323 4.779 4.225 4.779 7.422 0 2.071-1.679 3.75-3.75 3.75-.811 0-1.601-.263-2.25-.75l-3-2.25" fill="#976947"/><path d="m27 53h-8v5c0 2.209 1.791 4 4 4 2.209 0 4-1.791 4-4z" fill="#e47c6e"/><path d="m24 53h-2v8.859c.321.083.653.141 1 .141s.679-.058 1-.141z" fill="#c66b60"/><circle cx="23" cy="41" fill="#c18e59" r="12"/><path d="m27 44 3.554 2.962c1.55 1.291 2.446 3.205 2.446 5.222 0 1.803-.716 3.532-1.991 4.807l-.027.027c-.629.629-1.482.982-2.371.982-1.018 0-1.982-.463-2.618-1.258l-2.993-3.742-2.993 3.742c-.637.795-1.6 1.258-2.618 1.258-.889 0-1.742-.353-2.371-.982l-.027-.027c-1.275-1.275-1.991-3.004-1.991-4.807 0-2.018.896-3.931 2.446-5.223l3.554-2.961" fill="#ccc"/><path d="m19 44-3.554 2.962c-1.328 1.107-2.172 2.672-2.387 4.367 1.715 1.053 3.75 1.671 5.941 1.671 4.797 0 8.866-2.936 10.37-7.025l-2.37-1.975" fill="#f2f2f2"/><path d="m27 44-2-3-2 1-2-1-2 3 4 2z" fill="#243242"/><g><path d="m16 53h2v2h-2z" fill="#243242"/></g><g><path d="m18 49h2v2h-2z" fill="#243242"/></g><g><path d="m27 53h2v2h-2z" fill="#243242"/></g><g><path d="m25 49h2v2h-2z" fill="#243242"/></g><g><path d="m17.5 40c-.827 0-1.5-.673-1.5-1.5s.673-1.5 1.5-1.5 1.5.673 1.5 1.5-.673 1.5-1.5 1.5z" fill="#243242"/></g><g><path d="m28.5 40c-.827 0-1.5-.673-1.5-1.5s.673-1.5 1.5-1.5 1.5.673 1.5 1.5-.673 1.5-1.5 1.5z" fill="#243242"/></g><g><path d="m57 13c-3.309 0-6-2.691-6-6s2.691-6 6-6 6 2.691 6 6-2.691 6-6 6zm0-10c-2.206 0-4 1.794-4 4s1.794 4 4 4 4-1.794 4-4-1.794-4-4-4z" fill="#4d5d7a"/></g><g><path d="m43 13c-3.309 0-6-2.691-6-6s2.691-6 6-6 6 2.691 6 6-2.691 6-6 6zm0-10c-2.206 0-4 1.794-4 4s1.794 4 4 4 4-1.794 4-4-1.794-4-4-4z" fill="#4d5d7a"/></g></g></svg>